<?xml version="1.0" encoding="UTF-8"?><svg id="Livello_2" xmlns="http://www.w3.org/2000/svg" width="74.4" height="25.1" viewBox="0 0 74.4 25.1"><defs><style>.cls-1{fill:#fff;}.cls-2{fill:#ff4142;}</style></defs><g id="Livello_1-2"><g><path class="cls-1" d="M14.9,2V23.3c0,1-.8,1.8-1.8,1.8s-1.8-.8-1.8-1.8V14.5H3.6v8.8c0,1-.8,1.8-1.8,1.8s-1.8-.8-1.8-1.8V2C0,1,.8,.2,1.8,.2s1.8,.8,1.8,1.8V11h7.8V2c0-1,.8-1.8,1.8-1.8,.9,.1,1.7,.9,1.7,1.8h0Z"/><path class="cls-1" d="M34.3,16.2c0,1-.8,1.7-1.8,1.7h-12.3c.7,2.1,2.7,3.7,5.1,3.7,.8,0,2.3-.1,4-1.2,.8-.5,1.9,0,2.3,.8,.4,.9,0,1.8-.9,2.3-2.3,1.6-4.2,1.5-5.5,1.5-4.9,0-8.9-4-8.9-8.9s4-8.9,8.9-8.9c4.4,0,9.1,3.2,9.1,9Zm-14.1-1.8h10.3c-.7-2.5-3-3.6-5.2-3.6-2.4,0-4.3,1.5-5.1,3.6h0Z"/><path class="cls-1" d="M36.4,23.3V9c0-1,.8-1.7,1.8-1.7s1.7,.8,1.7,1.7v14.3c0,1-.8,1.8-1.7,1.8-1,0-1.8-.8-1.8-1.8Z"/><path class="cls-1" d="M56,24.6c-.3,.3-.7,.4-1.1,.4-.5,0-1-.2-1.4-.6l-6.8-8.1-1.1,.7v6.2c0,1-.8,1.8-1.8,1.8s-1.7-.8-1.7-1.8V1.8c0-1,.8-1.7,1.7-1.7,1,0,1.8,.8,1.8,1.7V12.8l8.1-5.3c.7-.6,1.9-.5,2.5,.2s.5,1.9-.2,2.5l-6.2,4.1,6.5,7.8c.5,.8,.4,1.9-.3,2.5Z"/><path class="cls-1" d="M56.5,16.2c0-4.9,4-8.9,8.9-8.9s8.9,4,8.9,8.9-4,8.9-8.9,8.9-8.9-4-8.9-8.9Zm3.5,0c0,3,2.4,5.4,5.4,5.4s5.4-2.5,5.4-5.4c0-3-2.4-5.4-5.4-5.4s-5.4,2.4-5.4,5.4Z"/><path class="cls-1" d="M36.9,3.3c-.3-.3-.6-.9-.6-1.4s.2-1,.6-1.4c.3-.3,.8-.5,1.3-.5s1,.2,1.4,.6c.3,.3,.5,.9,.5,1.4s-.2,1-.5,1.4c-.3,.3-.9,.5-1.4,.5s-1-.3-1.3-.6h0Z"/><path class="cls-2" d="M58.9,0c-.5,0-1,.2-1.4,.6-.3,.3-.5,.8-.5,1.3s.2,1,.6,1.4c.3,.3,.8,.5,1.3,.5h13.6c.5,0,1-.2,1.4-.5,.3-.3,.5-.9,.5-1.4s-.2-1-.5-1.4c-.5-.3-1-.5-1.5-.5h-13.5Z"/></g></g></svg>